<svg width="191" height="172" viewBox="0 0 191 172" fill="none" xmlns="http://www.w3.org/2000/svg">
<path d="M52.041 171.999H12.3176C9.05086 171.999 5.9179 170.701 3.60795 168.391C1.29801 166.081 0.000293823 162.948 0.000293823 159.681C-0.0146081 157.524 0.53757 155.4 1.60155 153.523L84.2508 6.20762C84.7821 5.25653 85.4456 4.38564 86.2215 3.62098C86.9917 2.82494 87.8861 2.15934 88.8698 1.65021C90.7422 0.569138 92.8663 0 95.0284 0C97.1906 0 99.3146 0.569138 101.187 1.65021C102.142 2.17641 103.013 2.84048 103.774 3.62098C104.625 4.43359 105.351 5.36747 105.929 6.39238L188.517 153.523C189.606 155.408 190.175 157.548 190.168 159.725C190.16 161.902 189.576 164.038 188.475 165.915C187.373 167.793 185.793 169.345 183.897 170.414C182 171.482 179.854 172.029 177.678 171.999H138.077C133.957 164.17 127.746 157.636 120.136 153.124C112.525 148.613 103.813 146.299 94.9669 146.44C86.1193 146.292 77.4042 148.603 69.7925 153.115C62.1809 157.628 55.9715 164.165 51.8562 171.999H52.041Z" fill="url(#paint0_linear_222_155)"/>
<path opacity="0.27" d="M84.5615 113.492L95.7703 99.3882H101.559L91.2129 113.43L84.5615 113.492Z" fill="url(#paint1_linear_222_155)"/>
<path opacity="0.22" d="M93.4294 78.5719H110.858L105.932 84.7306L88.9336 84.2995L93.4294 78.5719Z" fill="url(#paint2_linear_222_155)"/>
<path d="M93.4852 78.5719L74.2085 103.207C73.2597 104.203 72.7305 105.526 72.7305 106.902C72.7305 108.278 73.2597 109.601 74.2085 110.597C75.3084 111.843 76.6989 112.799 78.2567 113.379C79.8145 113.959 81.4914 114.146 83.1386 113.923L97.0572 96.74L110.853 78.5719H93.4852Z" fill="white"/>
<path d="M95.7672 99.5112H111.657C111.657 99.5112 116.276 100.62 117.507 103.453C118.186 105.302 118.186 107.331 117.507 109.18C117.507 109.18 115.906 113.491 112.211 113.491H84.6816L95.7672 99.5112Z" fill="white"/>
<path d="M80.4956 64.5302H107.963C109.597 64.5302 111.163 65.179 112.318 66.334C113.473 67.489 114.122 69.0554 114.122 70.6888C114.122 72.3222 113.473 73.8887 112.318 75.0436C111.163 76.1986 109.597 76.8475 107.963 76.8475H80.4956C78.8622 76.8475 77.2957 76.1986 76.1407 75.0436C74.9858 73.8887 74.3369 72.3222 74.3369 70.6888C74.3369 69.0554 74.9858 67.489 76.1407 66.334C77.2957 65.179 78.8622 64.5302 80.4956 64.5302Z" fill="white"/>
<defs>
<linearGradient id="paint0_linear_222_155" x1="95.0839" y1="0" x2="95.0839" y2="225" gradientUnits="userSpaceOnUse">
<stop stop-color="#0B749F"/>
<stop offset="1" stop-color="#05445E"/>
</linearGradient>
<linearGradient id="paint1_linear_222_155" x1="-207.852" y1="409.886" x2="-207.852" y2="410.026" gradientUnits="userSpaceOnUse">
<stop stop-color="white"/>
<stop offset="1" stop-color="#A7ACAD"/>
</linearGradient>
<linearGradient id="paint2_linear_222_155" x1="84.152" y1="359.099" x2="84.152" y2="358.606" gradientUnits="userSpaceOnUse">
<stop stop-color="#A7ACAD"/>
<stop offset="1" stop-color="white"/>
</linearGradient>
</defs>
</svg>
